<?xml version="1.0" encoding="UTF-8" standalone="no"?>
<!DOCTYPE svg PUBLIC "-//W3C//DTD SVG 1.1//EN"
 "http://www.w3.org/Graphics/SVG/1.1/DTD/svg11.dtd">
<!-- Generated by graphviz version 2.40.1 (0)
 -->
<!-- Title: %3 Pages: 1 -->
<svg width="331pt" height="199pt"
 viewBox="0.00 0.00 330.77 198.79" xmlns="http://www.w3.org/2000/svg" xmlns:xlink="http://www.w3.org/1999/xlink">
<g id="graph0" class="graph" transform="scale(1 1) rotate(0) translate(4 194.7939)">
<title>%3</title>
<!-- distribution -->
<g id="node1" class="node">
<title>distribution</title>
<ellipse fill="#f8f8f8" stroke="#000000" cx="112.7193" cy="-170.9949" rx="84.2917" ry="19.6"/>
<text text-anchor="middle" x="112.7193" y="-166.5949" font-family="sans-serif" font-size="18.00" fill="#000000">distribution</text>
</g>
<!-- docs -->
<g id="node2" class="node">
<title>docs</title>
<ellipse fill="#f8f8f8" stroke="#000000" cx="41.7193" cy="-95.397" rx="41.9398" ry="19.6"/>
<text text-anchor="middle" x="41.7193" y="-90.997" font-family="sans-serif" font-size="18.00" fill="#000000">docs</text>
</g>
<!-- distribution&#45;&gt;docs -->
<g id="edge1" class="edge">
<title>distribution&#45;&gt;docs</title>
<path fill="none" stroke="#000000" d="M94.435,-151.5266C85.6603,-142.1836 75.034,-130.8691 65.6274,-120.8534"/>
<polygon fill="#000000" stroke="#000000" points="68.12,-118.3948 58.7227,-113.5016 63.0174,-123.1869 68.12,-118.3948"/>
</g>
<!-- standalone -->
<g id="node3" class="node">
<title>standalone</title>
<ellipse fill="#f8f8f8" stroke="#000000" cx="183.7193" cy="-95.397" rx="82.9636" ry="19.6"/>
<text text-anchor="middle" x="183.7193" y="-90.997" font-family="sans-serif" font-size="18.00" fill="#000000">standalone</text>
</g>
<!-- distribution&#45;&gt;standalone -->
<g id="edge2" class="edge">
<title>distribution&#45;&gt;standalone</title>
<path fill="none" stroke="#000000" d="M131.0036,-151.5266C139.3681,-142.6204 149.4151,-131.9227 158.4842,-122.2663"/>
<polygon fill="#000000" stroke="#000000" points="161.2023,-124.4847 165.497,-114.7994 156.0998,-119.6926 161.2023,-124.4847"/>
</g>
<!-- backend -->
<g id="node4" class="node">
<title>backend</title>
<ellipse fill="#f8f8f8" stroke="#000000" cx="109.7193" cy="-19.799" rx="65.1077" ry="19.6"/>
<text text-anchor="middle" x="109.7193" y="-15.399" font-family="sans-serif" font-size="18.00" fill="#000000">backend</text>
</g>
<!-- standalone&#45;&gt;backend -->
<g id="edge3" class="edge">
<title>standalone&#45;&gt;backend</title>
<path fill="none" stroke="#000000" d="M164.6625,-75.9286C155.79,-66.8645 145.1011,-55.9449 135.5189,-46.1557"/>
<polygon fill="#000000" stroke="#000000" points="137.9517,-43.6376 128.4554,-38.9397 132.9494,-48.5342 137.9517,-43.6376"/>
</g>
<!-- frontend -->
<g id="node5" class="node">
<title>frontend</title>
<ellipse fill="#f8f8f8" stroke="#000000" cx="257.7193" cy="-19.799" rx="65.1077" ry="19.6"/>
<text text-anchor="middle" x="257.7193" y="-15.399" font-family="sans-serif" font-size="18.00" fill="#000000">frontend</text>
</g>
<!-- standalone&#45;&gt;frontend -->
<g id="edge4" class="edge">
<title>standalone&#45;&gt;frontend</title>
<path fill="none" stroke="#000000" d="M202.7761,-75.9286C211.6487,-66.8645 222.3375,-55.9449 231.9197,-46.1557"/>
<polygon fill="#000000" stroke="#000000" points="234.4892,-48.5342 238.9832,-38.9397 229.4869,-43.6376 234.4892,-48.5342"/>
</g>
</g>
</svg>
